 <svg
      width="400"
      height="342"
      viewBox="0 0 410 342"
      fill="none"
      xmlns="http://www.w3.org/2000/svg"
    >
      <path
        d="M64.1833 330.192L10.8582 265.972L123.141 289.924V323.133L64.1833 330.192Z"
        fill="#B7B7FF"
        stroke="black"
        strokeWidth="8.6129"
      />
      <mask id="path-2-inside-1_68_153" fill="white">
        <path d="M264.451 312.192C218.67 334.667 163.011 344.953 107.432 341.209L115.135 284.658C151.618 287.116 188.154 280.364 218.204 265.611L264.451 312.192Z" />
      </mask>
      <path
        d="M264.451 312.192C218.67 334.667 163.011 344.953 107.432 341.209L115.135 284.658C151.618 287.116 188.154 280.364 218.204 265.611L264.451 312.192Z"
        fill="#FFB7B7"
        stroke="black"
        strokeWidth="18.8161"
        mask="url(#path-2-inside-1_68_153)"
      />
      <mask id="path-3-inside-2_68_153" fill="white">
        <path d="M321.439 272.152C297.844 302.36 260.646 325.238 216.562 336.655L188.778 276.137C213.639 269.698 234.616 256.796 247.923 239.76L321.439 272.152Z" />
      </mask>
      <path
        d="M321.439 272.152C297.844 302.36 260.646 325.238 216.562 336.655L188.778 276.137C213.639 269.698 234.616 256.796 247.923 239.76L321.439 272.152Z"
        fill="#FFB7B7"
        stroke="black"
        strokeWidth="17.2258"
        mask="url(#path-3-inside-2_68_153)"
      />
      <mask id="path-4-inside-3_68_153" fill="white">
        <path d="M345.579 158.452C357.317 178.804 362.067 200.6 359.491 222.29C356.914 243.98 347.074 265.033 330.671 283.951L240.275 250.328C249.139 240.106 254.456 228.73 255.848 217.009C257.241 205.288 254.674 193.51 248.331 182.513L345.579 158.452Z" />
      </mask>
      <path
        d="M345.579 158.452C357.317 178.804 362.067 200.6 359.491 222.29C356.914 243.98 347.074 265.033 330.671 283.951L240.275 250.328C249.139 240.106 254.456 228.73 255.848 217.009C257.241 205.288 254.674 193.51 248.331 182.513L345.579 158.452Z"
        fill="#FFB7B7"
        stroke="black"
        strokeWidth="17.2258"
        mask="url(#path-4-inside-3_68_153)"
      />
      <mask id="path-5-inside-4_68_153" fill="white">
        <path d="M274.106 92.802C321.718 112.229 355.749 141.607 369.649 175.282L252.589 192.911C245.895 176.693 229.505 162.544 206.575 153.188L274.106 92.802Z" />
      </mask>
      <path
        d="M274.106 92.802C321.718 112.229 355.749 141.607 369.649 175.282L252.589 192.911C245.895 176.693 229.505 162.544 206.575 153.188L274.106 92.802Z"
        fill="#FFB7B7"
        stroke="black"
        strokeWidth="17.2258"
        mask="url(#path-5-inside-4_68_153)"
      />
      <mask id="path-6-inside-5_68_153" fill="white">
        <path d="M148.753 53.6C203.963 53.6 257.746 65.1954 302.347 86.714L222.208 159.343C200.878 149.052 175.157 143.507 148.753 143.507L148.753 53.6Z" />
      </mask>
      <path
        d="M148.753 53.6C203.963 53.6 257.746 65.1954 302.347 86.714L222.208 159.343C200.878 149.052 175.157 143.507 148.753 143.507L148.753 53.6Z"
        fill="#B7FFFF"
        stroke="black"
        strokeWidth="17.2258"
        mask="url(#path-6-inside-5_68_153)"
      />
      <path
        d="M14.8364 122.423L7.82616 80.284L185.413 43.7746V143.002H134.371L14.8364 122.423Z"
        fill="#FFB7B7"
        stroke="black"
        strokeWidth="8.62615"
      />
      <path
        d="M109.347 101.969C109.347 109.244 102.908 115.373 94.669 115.373C86.4298 115.373 79.9914 109.244 79.9914 101.969C79.9914 94.6942 86.4298 88.5654 94.669 88.5654C102.908 88.5654 109.347 94.6942 109.347 101.969Z"
        fill="black"
      />
      <path
        d="M109.347 101.969C109.347 109.244 102.908 115.373 94.669 115.373C86.4298 115.373 79.9914 109.244 79.9914 101.969C79.9914 94.6942 86.4298 88.5654 94.669 88.5654C102.908 88.5654 109.347 94.6942 109.347 101.969Z"
        stroke="black"
        strokeWidth="3.42308"
      />
      <path
        d="M109.347 101.969C109.347 109.244 102.908 115.373 94.669 115.373C86.4298 115.373 79.9914 109.244 79.9914 101.969C79.9914 94.6942 86.4298 88.5654 94.669 88.5654C102.908 88.5654 109.347 94.6942 109.347 101.969Z"
        stroke="black"
        strokeOpacity="0.2"
        strokeWidth="3.42308"
      />
      <path
        d="M102.275 77.7878C102.275 77.7878 84.956 8.30283 221.863 8.30281"
        stroke="black"
        strokeWidth="8.6129"
      />
    </svg>